# xmcd
#
# Track frame offsets: 
#        150
#        6300
#        18487
#        31265
#        51550
#        65520
#        93740
#        103870
#        113030
#        130085
#        136057
#        148885
#        160179
#        174333
#        181966
#
# Disc length: 2663 seconds
#
# Revision: 0
# Processed by: cddbd v1.5.2PL0 Copyright (c) Steve Scherf et al.
# Submitted via: ExactAudioCopy v1.0b3
#
DISCID=d10a650f
DTITLE=Kalle Sändare - Boxen e' klar - CD 19 - Meditationens A och O
DYEAR=2014
DGENRE=Comedy
TTITLE0=Intro
TTITLE1=Yoga i Falun
TTITLE2=Tibet, jag provade hur det var
TTITLE3=Tascha 1-4
TTITLE4=Vad glad jag blev
TTITLE5=Äggskalskänning
TTITLE6=Kina-mackor
TTITLE7=Bandring
TTITLE8=Vandra i Nepal 1, man kan ju ha det...
TTITLE9=Rune möran
TTITLE10=Vandra i Nepal 2, jag fick bara brev...
TTITLE11=Stimulansmatta
TTITLE12=Åk till asien
TTITLE13=Har ni turbaner
TTITLE14=Patricia, den glada damen
EXTD=
EXTT0=
EXTT1=
EXTT2=
EXTT3=
EXTT4=
EXTT5=
EXTT6=
EXTT7=
EXTT8=
EXTT9=
EXTT10=
EXTT11=
EXTT12=
EXTT13=
EXTT14=
PLAYORDER=
